<?xml version="1.0" standalone="no"?>
<!DOCTYPE svg PUBLIC "-//W3C//DTD SVG 20010904//EN"
 "http://www.w3.org/TR/2001/REC-SVG-20010904/DTD/svg10.dtd">
<svg version="1.0" xmlns="http://www.w3.org/2000/svg"
 width="677.000000pt" height="345.000000pt" viewBox="0 0 677.000000 345.000000"
 preserveAspectRatio="xMidYMid meet">

<g transform="translate(0.000000,345.000000) scale(0.100000,-0.100000)"
fill="#000000" stroke="none">
<path d="M2393 3365 c-216 -58 -455 -274 -630 -568 -64 -108 -174 -333 -229
-466 -21 -52 -40 -89 -42 -83 -2 7 4 47 13 89 9 43 19 144 22 224 9 225 -27
352 -127 462 -113 124 -305 166 -515 112 -82 -21 -246 -103 -325 -163 -213
-161 -388 -446 -441 -717 -17 -87 -18 -267 -1 -321 16 -55 50 -104 92 -132 31
-21 43 -23 110 -19 104 6 158 33 250 127 54 55 88 101 122 166 52 101 110 273
128 383 11 65 10 75 -4 89 -13 13 -20 14 -34 6 -14 -9 -18 -32 -24 -120 -12
-207 -96 -394 -232 -522 -143 -133 -277 -120 -326 31 -49 151 49 490 210 726
150 222 365 386 561 427 153 33 279 7 369 -75 l41 -36 -51 -143 c-27 -78 -86
-258 -131 -400 -109 -349 -152 -468 -216 -597 -126 -253 -264 -381 -425 -393
-64 -4 -68 -3 -95 25 -15 16 -33 38 -39 48 -9 16 -15 17 -24 8 -16 -15 12 -66
52 -96 57 -42 183 -30 298 28 275 139 504 598 625 1250 14 77 29 158 33 180
l7 40 23 -48 c54 -114 64 -249 36 -487 -30 -262 -78 -431 -180 -638 -36 -73
-64 -140 -62 -150 2 -9 13 -18 24 -20 43 -6 75 58 204 419 118 329 240 610
331 765 85 144 258 357 313 385 16 9 13 3 -11 -22 -243 -261 -439 -837 -420
-1238 3 -69 13 -152 22 -184 47 -178 152 -285 311 -318 l59 -12 -53 -106
c-141 -285 -171 -576 -76 -739 53 -89 171 -106 299 -43 84 42 170 135 228 249
85 165 160 457 128 496 -15 18 -21 19 -39 7 -10 -6 -15 -39 -17 -112 -7 -186
-83 -388 -192 -508 -67 -74 -124 -110 -190 -118 -94 -11 -142 40 -163 172 -24
149 38 389 162 628 28 53 47 79 62 81 113 23 184 46 259 84 73 36 109 63 198
149 89 86 109 111 109 134 0 24 -4 29 -24 29 -18 0 -32 -14 -60 -59 -45 -73
-106 -137 -177 -185 -61 -41 -181 -90 -248 -101 l-43 -7 30 44 c132 192 379
370 597 429 118 33 336 33 417 1 l56 -23 -71 -72 c-146 -148 -242 -325 -388
-715 -153 -409 -261 -654 -337 -765 -63 -91 -157 -157 -225 -157 -40 0 -87 29
-104 64 -19 42 -43 47 -43 11 0 -39 63 -101 123 -121 133 -45 410 2 612 104
297 149 507 406 629 772 60 181 80 296 80 460 0 125 -3 154 -23 210 -27 79
-61 133 -114 182 l-39 37 47 30 c54 34 142 56 191 47 35 -7 74 -47 74 -77 0
-46 26 -63 50 -34 10 12 8 24 -11 62 -34 66 -73 85 -169 81 -63 -3 -87 -9
-153 -42 l-78 -39 -67 22 c-85 28 -245 38 -365 22 -176 -24 -353 -90 -500
-188 -87 -58 -248 -211 -302 -287 -38 -54 -42 -56 -75 -50 -127 22 -233 150
-265 320 -84 438 170 1229 477 1485 95 79 160 101 252 87 32 -5 29 19 -5 31
-41 14 -71 13 -136 -4z m1031 -1562 c111 -152 109 -420 -5 -758 -73 -214 -175
-386 -323 -542 -179 -189 -405 -312 -621 -338 l-50 -6 40 22 c167 92 279 285
494 858 149 395 207 523 293 653 49 73 119 157 130 158 4 0 23 -21 42 -47z"/>
<path d="M5552 3270 c-18 -4 -35 -9 -36 -11 -2 -2 -15 -35 -28 -73 l-25 -69
-11 46 c-15 58 -41 77 -107 77 -128 0 -252 -155 -321 -400 -44 -160 -132 -291
-219 -331 -50 -23 -69 -24 -90 -2 -27 27 -12 89 56 236 107 231 133 343 89
387 -58 58 -193 -11 -286 -145 -20 -30 -39 -54 -40 -52 -2 2 10 39 26 83 35
93 36 97 13 91 -10 -3 -34 -8 -54 -11 l-37 -6 -98 -277 c-101 -285 -143 -371
-200 -407 -36 -25 -78 -25 -105 0 -38 34 -22 117 71 379 45 127 84 238 87 248
5 16 1 18 -33 12 -71 -12 -72 -13 -95 -85 -21 -65 -39 -83 -39 -40 0 81 -92
115 -187 69 -91 -44 -195 -207 -243 -379 -24 -88 -76 -203 -121 -265 -72 -100
-179 -102 -179 -2 0 57 21 132 106 369 41 116 73 212 72 214 -3 3 -100 -14
-104 -19 -2 -2 -40 -106 -84 -232 -90 -253 -123 -324 -186 -394 -76 -84 -165
-105 -179 -41 -10 46 1 82 87 269 75 163 132 310 124 318 -2 2 -29 -3 -62 -12
-32 -8 -75 -15 -96 -15 -40 0 -108 23 -108 37 0 4 14 47 31 96 18 48 29 90 26
93 -12 13 -69 -9 -97 -38 -33 -33 -40 -84 -19 -142 10 -28 3 -54 -66 -246 -42
-118 -97 -257 -121 -308 -67 -139 -139 -201 -200 -173 -61 27 -51 103 50 388
41 115 79 221 85 237 l12 29 -52 -6 c-60 -7 -61 -9 -91 -97 -14 -42 -23 -58
-26 -45 -20 113 -83 142 -190 89 -71 -35 -125 -100 -183 -219 -56 -117 -79
-201 -79 -303 0 -84 16 -129 56 -161 24 -19 38 -22 82 -19 63 6 110 39 162
117 l35 52 17 -40 c20 -48 60 -71 123 -71 136 0 202 96 350 512 l77 216 34
-14 c18 -8 56 -14 84 -14 63 0 66 13 -46 -221 -93 -194 -114 -267 -95 -329 16
-53 56 -75 124 -67 80 10 153 63 234 173 22 29 22 29 22 5 1 -13 10 -38 21
-56 34 -55 111 -70 185 -36 49 23 82 58 128 135 l36 59 7 -38 c9 -50 56 -103
99 -111 70 -13 146 34 206 128 l33 51 11 -39 c22 -80 118 -107 208 -60 25 14
47 20 49 15 3 -8 93 2 102 12 2 2 27 69 56 149 94 261 220 469 328 540 62 41
77 37 77 -20 -1 -36 -18 -80 -83 -211 -111 -224 -131 -325 -73 -382 24 -25 94
-28 156 -7 47 16 137 98 172 157 14 24 27 43 29 43 2 0 8 -17 14 -39 40 -151
197 -141 301 20 l32 51 12 -36 c17 -49 30 -63 72 -77 81 -26 174 18 238 114
37 56 116 237 108 250 -13 22 -33 -2 -62 -78 -81 -206 -206 -308 -261 -212
-23 40 -1 134 90 388 44 123 80 227 80 232 0 9 -23 8 -68 -3z m-152 -87 c20
-25 22 -36 17 -113 -8 -107 -36 -209 -91 -326 -67 -141 -144 -205 -190 -158
-66 66 -2 350 122 537 26 39 86 87 109 87 6 0 21 -12 33 -27z m-1389 -222 c36
-29 37 -113 4 -247 -66 -267 -207 -447 -272 -348 -65 99 70 504 196 590 43 29
43 29 72 5z m-1625 -282 c57 -63 -26 -399 -134 -546 -89 -120 -174 -76 -159
84 13 141 103 356 183 438 48 50 80 57 110 24z"/>
<path d="M3492 3147 c-65 -69 -35 -171 40 -136 48 21 77 116 46 147 -20 20
-63 14 -86 -11z"/>
<path d="M6085 3145 c-54 -19 -128 -100 -154 -171 -12 -30 -26 -87 -31 -125
-9 -61 -14 -74 -43 -97 -138 -114 -244 -249 -273 -349 -34 -118 1 -241 85
-295 44 -28 50 -29 131 -26 68 4 96 10 138 32 71 36 121 88 158 164 0 1 29
-12 64 -30 60 -31 69 -33 169 -33 138 0 193 18 266 89 45 45 57 64 76 126 19
65 21 80 11 134 -15 77 -53 133 -114 166 l-47 26 50 17 c59 21 126 79 146 124
27 66 9 171 -32 187 -25 9 -55 7 -55 -4 0 -5 14 -16 30 -25 25 -13 30 -21 30
-54 0 -49 -34 -99 -85 -128 -22 -12 -83 -31 -135 -42 -154 -34 -238 -102 -248
-200 -5 -61 10 -102 50 -136 35 -29 98 -34 122 -9 22 22 11 34 -24 27 -46 -9
-76 4 -90 37 -40 97 64 201 180 180 86 -16 132 -80 138 -193 6 -89 -12 -147
-60 -202 -52 -59 -88 -77 -158 -78 -196 -2 -340 171 -380 458 l-9 70 98 92
c106 99 131 138 131 201 0 32 -6 45 -26 61 -31 24 -54 26 -109 6z m103 -67 c4
-33 -44 -96 -125 -162 -36 -31 -68 -54 -70 -53 -9 10 22 128 45 170 33 62 96
103 127 83 11 -7 21 -24 23 -38z m-251 -536 c16 -53 44 -110 78 -161 59 -88
59 -86 -19 -168 -51 -54 -109 -77 -177 -71 -62 6 -97 30 -127 89 -20 38 -23
54 -18 112 8 106 60 205 167 317 l52 55 9 -45 c5 -25 21 -82 35 -128z"/>
<path d="M6120 2151 c-22 -6 -35 -34 -115 -253 -49 -136 -93 -250 -97 -254 -5
-4 -8 4 -8 17 0 13 -9 38 -20 56 -47 78 -182 43 -271 -69 -51 -65 -112 -192
-138 -288 -24 -86 -84 -216 -129 -276 -29 -39 -83 -74 -116 -74 -9 0 -25 9
-36 20 -41 41 -23 129 94 455 35 99 63 182 61 184 -2 1 -26 0 -54 -4 l-50 -7
-31 -91 c-38 -114 -65 -162 -112 -200 -33 -27 -137 -71 -146 -62 -2 2 2 35 8
73 24 130 -22 222 -108 222 -137 0 -179 -182 -67 -285 l36 -32 -24 -64 c-59
-156 -134 -271 -198 -305 -67 -34 -139 -4 -139 59 0 49 36 174 110 376 38 106
70 197 70 201 0 6 -99 -5 -105 -12 -5 -7 -144 -405 -151 -433 -13 -56 -84
-185 -123 -224 -49 -49 -86 -59 -120 -33 -54 39 -41 109 74 430 41 113 75 210
75 215 0 5 -8 6 -17 4 -10 -3 -35 -8 -55 -11 -36 -7 -38 -9 -59 -76 -22 -68
-39 -83 -39 -34 0 15 -12 38 -29 55 -41 40 -97 40 -168 -1 -123 -70 -233 -288
-250 -492 -10 -115 35 -194 114 -205 69 -9 141 41 203 142 l24 38 11 -39 c20
-74 107 -104 193 -68 46 19 84 55 124 116 l30 48 19 -38 c26 -52 71 -77 139
-76 130 2 246 102 345 296 l57 112 61 16 c34 8 76 25 94 38 17 12 33 22 36 22
3 0 -6 -35 -20 -77 -43 -137 -29 -247 38 -280 33 -17 104 -16 143 2 44 21 86
67 130 140 23 38 36 53 36 40 1 -38 38 -103 69 -119 81 -42 178 6 247 122 21
37 34 41 34 12 0 -11 13 -34 28 -51 24 -27 37 -33 84 -37 118 -9 192 66 282
287 29 73 32 91 12 91 -7 0 -21 -21 -31 -47 -75 -200 -178 -318 -250 -285 -38
18 -49 56 -35 127 9 47 298 858 317 888 5 9 -52 8 -87 -2z m-276 -446 c8 -9
18 -31 22 -50 19 -104 -78 -416 -161 -513 -82 -97 -150 -66 -148 69 1 90 34
203 93 324 73 152 147 217 194 170z m-994 -165 c30 -16 34 -67 10 -142 -22
-71 -26 -76 -52 -55 -31 25 -48 62 -48 107 0 48 11 70 45 88 25 14 23 14 45 2z
m-770 -156 c41 -106 -74 -474 -175 -562 -43 -39 -87 -42 -109 -10 -23 33 -21
156 5 248 25 93 87 226 134 289 59 82 122 96 145 35z"/>
<path d="M5327 1899 c-15 -11 -32 -38 -38 -59 -31 -102 83 -124 121 -24 14 37
12 70 -6 88 -21 22 -46 20 -77 -5z"/>
</g>
</svg>
