<?xml version="1.0" standalone="no"?>
<!DOCTYPE svg PUBLIC "-//W3C//DTD SVG 20010904//EN"
 "http://www.w3.org/TR/2001/REC-SVG-20010904/DTD/svg10.dtd">
<svg version="1.0" xmlns="http://www.w3.org/2000/svg"
 width="648.000000pt" height="830.000000pt" viewBox="0 0 648.000000 830.000000"
 preserveAspectRatio="xMidYMid meet">

<g transform="translate(0.000000,830.000000) scale(0.100000,-0.100000)"
fill="#000000" stroke="none">
<path d="M3155 8169 c-11 -51 -32 -87 -84 -142 -50 -55 -47 -54 46 10 41 29
64 40 69 32 3 -6 9 -51 12 -99 6 -115 -16 -217 -75 -339 -38 -79 -59 -108
-131 -180 -53 -53 -110 -99 -147 -119 -82 -43 -47 -41 44 3 143 69 262 218
307 386 24 90 25 270 0 374 -24 104 -32 118 -41 74z"/>
<path d="M3131 7968 c-2 -28 -133 -279 -202 -383 -115 -176 -346 -442 -366
-422 -12 12 -8 169 6 227 19 79 90 225 145 297 26 34 81 94 124 134 42 40 61
62 42 49 -19 -13 -66 -54 -104 -90 -172 -164 -246 -315 -246 -504 0 -112 -21
-175 -111 -332 -67 -118 -159 -303 -159 -320 0 -5 28 48 63 116 76 153 135
239 289 423 307 365 381 464 445 592 39 77 85 205 79 219 -2 6 -5 4 -5 -6z"/>
<path d="M2021 7173 c-6 -21 -10 -67 -10 -103 1 -66 3 -66 14 4 4 21 10 35 14
30 18 -20 53 -226 46 -271 -8 -52 -14 -49 -36 15 l-16 47 1 -110 1 -110 37 55
c20 30 84 107 141 171 112 124 217 255 217 271 0 5 -23 -3 -51 -19 -75 -42
-180 -156 -224 -247 -21 -42 -39 -75 -41 -74 -1 2 -18 86 -38 187 -20 102 -38
186 -40 189 -3 2 -9 -13 -15 -35z m330 -96 c-23 -38 -170 -181 -178 -174 -7 7
32 80 63 116 28 33 125 104 132 96 2 -2 -5 -19 -17 -38z"/>
<path d="M1586 6938 c26 -137 55 -207 111 -269 42 -47 97 -77 156 -87 38 -7
42 -11 58 -57 10 -28 18 -69 19 -93 l0 -43 -22 21 c-12 11 -31 20 -42 20 -20
-1 -20 -1 -3 -11 11 -6 25 -26 33 -45 23 -54 17 -240 -12 -364 -6 -25 -6 -25
-21 -5 -33 44 -81 134 -102 188 -26 71 -27 141 -2 190 16 31 16 35 2 28 -9 -5
-27 -21 -41 -36 -22 -24 -25 -35 -25 -108 0 -73 4 -89 33 -146 17 -35 32 -66
32 -68 0 -2 -12 -2 -27 -1 -50 5 -36 -16 31 -51 37 -18 69 -31 71 -29 3 3 -22
18 -55 34 -59 29 -84 52 -35 34 56 -21 105 -51 105 -64 0 -8 7 -16 15 -20 11
-4 15 -21 15 -60 0 -68 33 -260 59 -345 11 -36 19 -66 17 -68 -1 -2 -30 27
-63 65 -58 65 -189 175 -256 216 -38 23 -31 16 46 -48 126 -105 250 -276 427
-591 192 -340 276 -466 400 -598 34 -37 60 -67 58 -67 -5 0 -807 442 -858 473
-52 32 -129 106 -163 157 -16 25 -27 37 -24 28 4 -10 3 -18 -2 -18 -9 0 -74
76 -116 137 -17 24 -34 43 -38 43 -10 0 43 -77 94 -136 22 -25 37 -49 34 -52
-3 -3 -11 0 -17 6 -7 7 -15 12 -20 12 -13 0 85 -86 158 -137 39 -28 118 -78
175 -112 l104 -61 -128 0 c-132 0 -224 -14 -345 -52 -57 -18 -63 -22 -42 -28
25 -6 25 -6 -10 -24 -45 -23 -140 -96 -140 -107 0 -4 34 16 76 46 78 56 101
66 90 40 -3 -8 -9 -22 -12 -30 -4 -9 27 9 67 40 98 73 157 95 262 95 143 0
322 -55 527 -161 136 -70 259 -159 377 -272 75 -72 183 -196 183 -210 0 -9
-81 13 -134 36 -28 12 -74 41 -103 64 -29 24 -53 40 -53 36 0 -17 100 -176
149 -237 69 -87 171 -180 286 -262 74 -52 126 -101 234 -223 218 -245 228
-255 120 -116 -89 114 -219 293 -226 311 -6 15 1 16 62 12 79 -7 104 -22 158
-98 20 -29 37 -51 37 -48 0 4 -14 46 -31 95 -73 206 -139 288 -305 371 -258
129 -425 340 -501 630 -27 104 -36 266 -21 387 11 89 -9 33 -28 -79 -11 -60
-15 -126 -12 -193 3 -57 3 -103 1 -103 -12 0 -179 362 -207 450 -67 206 -91
410 -83 708 8 287 38 496 98 671 11 30 17 56 15 58 -8 9 -77 -218 -101 -332
-36 -179 -46 -282 -46 -468 1 -174 10 -285 37 -422 33 -168 103 -384 165 -507
16 -32 27 -58 24 -58 -15 0 -195 292 -255 415 -114 231 -156 428 -132 620 6
52 18 112 26 135 7 22 12 40 10 40 -1 0 -19 -10 -39 -21 -58 -35 -53 -13 10
46 60 56 75 63 55 26 -6 -12 -8 -21 -6 -21 3 0 12 14 21 30 9 17 13 30 10 30
-3 0 -1 8 4 18 7 13 5 26 -9 46 l-18 28 -7 -50 c-4 -34 -14 -57 -31 -73 -13
-12 -26 -20 -30 -17 -3 3 2 31 11 62 9 31 15 83 14 116 -1 33 0 62 3 65 2 3 1
26 -3 53 -7 45 3 157 17 198 5 12 -1 9 -15 -8 -12 -16 -26 -28 -31 -28 -4 0
-10 39 -12 88 -5 111 -45 201 -124 279 -56 56 -159 113 -205 113 l-27 0 14
-72z m91 21 c105 -40 194 -150 206 -256 3 -24 2 -43 -1 -43 -4 1 -23 26 -42
57 -47 75 -134 182 -173 213 -32 24 -32 24 4 -17 63 -70 189 -266 189 -293 0
-18 -75 -5 -117 21 -43 27 -48 37 -103 202 -32 94 -42 137 -34 137 7 0 39 -10
71 -21z m273 -664 c9 -45 8 -69 -6 -140 -20 -96 -38 -115 -27 -27 5 31 8 96 8
144 0 47 3 84 7 82 4 -2 12 -29 18 -59z m-225 25 c-4 -16 1 -56 10 -92 14 -57
30 -90 87 -185 28 -47 1 -32 -45 25 -59 74 -94 211 -67 263 16 28 23 23 15
-11z m894 -2144 c39 -25 141 -62 306 -111 160 -48 245 -105 291 -198 14 -27
24 -51 22 -53 -2 -2 -28 17 -58 41 -63 52 -146 98 -226 125 -32 11 -60 20 -63
20 -3 0 45 -25 106 -55 87 -42 129 -70 183 -121 76 -72 88 -94 38 -68 -18 10
-73 21 -123 25 -110 10 -161 28 -242 86 -72 51 -218 212 -257 284 -15 27 -25
49 -21 49 3 0 23 -11 44 -24z"/>
<path d="M3160 6710 c-440 -93 -784 -391 -930 -805 -36 -103 -71 -266 -69
-328 1 -35 3 -31 10 23 29 223 150 410 315 487 28 13 89 35 135 48 46 14 111
38 144 54 60 28 158 109 196 162 l20 28 -28 -14 c-15 -8 -47 -15 -70 -15 -29
0 -64 -12 -118 -40 -99 -53 -188 -110 -181 -117 2 -3 17 4 33 15 61 43 250
129 260 118 8 -8 -25 -61 -54 -87 -44 -42 -86 -58 -209 -84 -140 -29 -208 -59
-274 -121 -27 -26 -50 -44 -50 -41 0 4 11 32 25 63 70 157 238 345 395 442 94
58 235 116 380 157 101 29 209 74 175 74 -11 0 -58 -9 -105 -19z"/>
<path d="M3115 6648 c-31 -17 -75 -60 -90 -88 -7 -14 -16 -48 -20 -75 -4 -28
-9 -59 -11 -70 -2 -11 13 17 35 62 22 46 60 104 86 132 45 48 45 64 0 39z"/>
<path d="M3241 5702 c-43 -21 -70 -57 -81 -108 -5 -21 -10 -135 -10 -251 l0
-213 24 0 c41 0 72 -36 125 -145 28 -57 80 -142 115 -188 l63 -83 -46 24 c-49
25 -90 25 -148 1 -30 -12 -34 -11 -60 13 -41 37 -62 46 -144 59 -147 22 -179
50 -203 178 l-13 66 -8 -38 c-34 -169 125 -357 301 -357 37 0 45 -3 40 -15 -3
-9 -13 -41 -22 -72 -35 -121 9 -421 52 -352 12 21 127 68 178 74 29 3 72 0
100 -7 l50 -13 2 -200 c4 -308 44 -559 135 -845 33 -100 105 -283 139 -350 11
-22 17 -40 13 -40 -5 0 -34 21 -67 48 -98 79 -100 78 -31 -13 142 -188 264
-384 364 -583 58 -116 58 -116 -54 -37 -120 86 -264 258 -320 385 -11 25 -25
50 -32 55 -14 12 -54 151 -48 168 3 7 1 25 -3 41 -6 22 -13 -2 -33 -120 l-25
-149 -28 2 c-45 3 -286 127 -352 182 -72 58 -128 132 -158 204 -22 55 -24 57
-56 57 -29 0 -25 -12 23 -70 98 -120 107 -145 34 -109 -157 81 -268 298 -238
465 15 81 14 126 -5 152 -22 32 -64 26 -82 -11 -17 -35 -13 -40 38 -40 45 0
58 -10 40 -32 -15 -18 -61 -19 -79 -2 -19 17 -6 -36 26 -116 14 -34 43 -107
64 -162 l39 -100 -95 95 c-52 52 -144 142 -204 200 -60 58 -123 125 -140 149
-40 57 -66 143 -80 264 -6 53 -16 139 -22 191 -25 228 -105 348 -244 371 l-40
6 30 -14 c51 -24 82 -70 100 -149 9 -40 34 -104 55 -143 20 -38 41 -88 45
-110 4 -21 15 -56 26 -77 27 -53 39 -126 30 -184 l-7 -49 -38 115 c-47 141
-57 161 -107 215 -39 42 -65 57 -122 69 -21 5 -33 18 -51 59 -12 28 -44 73
-69 99 -44 44 -46 48 -36 77 6 17 24 42 41 56 38 32 24 32 -23 1 -20 -14 -42
-38 -49 -55 -12 -29 -16 -31 -64 -31 -126 -1 -260 -50 -315 -117 -38 -46 -40
-61 -3 -35 88 63 167 85 242 69 35 -7 35 -7 -9 16 -40 22 -43 25 -25 34 94 50
223 4 275 -98 26 -52 25 -56 -18 -64 -66 -11 -111 -49 -143 -120 -33 -73 -53
-84 -102 -58 -23 12 -57 18 -110 18 -84 2 -103 11 -139 70 l-19 30 0 -30 c0
-16 9 -45 20 -63 20 -32 20 -32 0 -69 -55 -103 4 -215 155 -295 39 -21 64 -38
58 -38 -7 0 -22 -9 -33 -20 -23 -23 -27 -95 -7 -121 43 -56 123 -54 292 6 301
107 444 117 592 42 81 -41 163 -137 163 -191 0 -21 -83 -22 -160 -1 -30 8 -73
14 -95 14 l-40 -1 32 -14 c31 -13 50 -45 38 -64 -3 -5 16 0 42 11 35 16 68 22
126 22 67 0 86 -5 142 -32 59 -29 115 -82 115 -108 0 -18 -34 -20 -85 -6 -80
24 -139 27 -154 9 -16 -19 -10 -68 9 -74 13 -5 13 -3 1 11 -7 10 -10 24 -6 34
6 16 9 15 31 -10 29 -34 32 -20 3 17 l-20 26 24 0 c29 0 52 -23 44 -45 -5 -12
3 -14 51 -9 124 13 299 -54 474 -178 48 -35 85 -64 84 -65 -2 -2 -27 2 -55 8
-33 7 -74 8 -109 3 l-57 -8 90 -7 c119 -9 202 -31 303 -81 62 -30 81 -44 78
-57 -3 -9 -8 -57 -12 -107 -3 -51 -10 -97 -14 -104 -6 -9 -26 -7 -88 8 -106
27 -186 60 -272 112 -65 39 -72 41 -100 30 -62 -26 -81 -102 -34 -139 44 -35
137 -20 162 25 8 15 25 13 168 -22 l159 -39 9 -50 c39 -227 105 -365 244 -508
37 -37 62 -67 57 -67 -6 0 32 -23 83 -50 123 -65 218 -129 324 -218 78 -66
212 -201 205 -208 -1 -1 -63 22 -137 51 -349 139 -497 152 -843 75 -74 -17
-175 -36 -224 -43 l-88 -13 103 -58 c224 -127 364 -170 531 -164 104 4 110 5
273 71 245 99 319 108 409 48 75 -51 79 -58 263 -526 63 -159 115 -285 115
-279 1 18 -131 432 -200 626 -78 221 -173 467 -265 688 -40 96 -75 191 -79
211 -14 77 33 212 107 305 18 23 68 81 111 130 43 49 96 118 117 154 110 185
136 437 80 782 -32 195 -45 172 -37 -64 8 -222 0 -252 -83 -356 -71 -89 -61
-90 19 -3 l69 75 11 -53 c17 -81 14 -173 -10 -235 -11 -30 -49 -99 -85 -152
-64 -96 -293 -378 -300 -371 -8 8 47 159 85 235 21 42 62 108 90 147 49 67 72
117 30 65 -97 -121 -163 -238 -200 -356 -40 -128 -37 -124 -38 -74 -1 63 34
373 59 511 20 115 68 297 96 364 7 19 14 38 14 42 -2 38 -90 -222 -123 -362
-42 -177 -58 -298 -65 -490 l-7 -180 -56 100 c-241 430 -494 1038 -515 1237
-8 79 14 171 59 248 44 74 161 188 269 260 98 66 106 78 19 29 -137 -78 -262
-201 -333 -331 -24 -42 -46 -78 -49 -78 -6 0 -25 66 -59 210 -11 47 -23 137
-26 200 -8 144 10 234 66 344 29 58 36 82 28 87 -9 6 -8 23 3 73 9 36 13 63 9
61 -10 -6 -30 -87 -30 -119 0 -51 -18 -56 -183 -53 -131 2 -157 -1 -185 -16
l-34 -18 7 23 c13 41 53 114 87 159 50 65 55 80 10 32 -43 -47 -106 -160 -117
-210 -3 -18 -10 -35 -15 -38 -10 -6 -40 102 -40 147 0 51 61 166 121 227 27
28 46 51 41 51 -21 0 -106 -101 -137 -164 l-35 -69 0 45 c0 63 35 159 76 206
60 71 132 79 202 23 56 -45 128 -73 201 -78 90 -6 108 -10 131 -33 30 -30 25
-78 -14 -143 l-35 -57 28 16 c28 16 29 16 110 -41 45 -32 114 -71 154 -88 63
-27 83 -31 167 -32 106 0 168 20 216 72 64 68 83 177 43 255 l-21 42 63 55
c181 156 224 220 199 297 -16 47 -26 49 -22 4 6 -55 -23 -134 -61 -166 -25
-21 -37 -25 -66 -20 -20 3 -67 8 -106 11 l-70 5 71 -14 c87 -17 114 -25 114
-35 0 -16 -89 -90 -114 -97 -20 -5 -34 1 -61 25 -40 35 -110 72 -170 90 -22 7
-46 14 -52 16 -20 7 -4 32 28 45 42 18 96 82 109 131 6 22 10 64 9 93 l-3 51
59 5 60 5 -48 7 c-26 4 -70 17 -98 29 -46 20 -50 25 -47 51 4 25 3 26 -11 14
-11 -9 -40 -12 -97 -10 -71 3 -85 0 -112 -19 -50 -38 -98 -102 -162 -220 -33
-62 -72 -126 -86 -142 l-25 -30 19 40 c51 105 66 228 38 316 -8 24 -19 70 -26
101 -6 31 -22 73 -36 93 l-25 37 36 48 c52 71 147 150 180 150 3 0 5 -39 6
-87 1 -81 2 -84 10 -43 5 25 7 66 3 92 l-6 47 44 12 c112 30 197 7 232 -65 16
-33 17 -45 7 -93 -6 -31 -22 -76 -35 -99 -14 -24 -21 -44 -17 -44 5 0 19 20
32 45 26 49 38 44 40 -20 1 -67 17 -10 18 65 2 163 -71 249 -209 250 -98 0
-165 -36 -262 -139 -43 -46 -78 -87 -78 -92 0 -24 -25 -3 -71 61 -51 70 -70
89 -49 49 14 -26 8 -34 -17 -20 -10 6 -30 15 -45 21 -16 5 -28 16 -28 25 0 8
-5 24 -12 35 -26 41 18 33 71 -14 19 -16 17 -11 -8 21 -88 114 -210 161 -300
115z m127 -6 c38 -20 68 -54 91 -106 27 -59 26 -66 -8 -73 -18 -4 -41 -21 -58
-43 -15 -20 -47 -59 -70 -87 -47 -55 -69 -112 -79 -199 l-7 -57 -31 16 c-51
26 -51 27 -24 128 l10 40 19 -35 c26 -49 23 -36 -11 63 -49 143 -49 238 1 308
37 52 114 73 167 45z m177 -215 c49 -23 137 -108 171 -167 34 -59 41 -132 19
-214 -29 -107 -26 -131 4 -40 31 95 41 88 41 -32 0 -80 -26 -170 -70 -238 -18
-28 -29 -54 -25 -58 13 -13 81 78 165 219 76 126 161 231 175 217 6 -6 -57
-141 -77 -165 -6 -8 -8 -16 -6 -19 8 -8 42 43 67 101 47 106 114 134 194 80
89 -61 103 -190 29 -268 -40 -43 -73 -56 -201 -83 -64 -14 -120 -29 -125 -34
-5 -5 18 -3 50 5 32 7 84 16 114 19 52 6 53 6 30 -8 -14 -8 -76 -26 -137 -39
-115 -26 -204 -59 -224 -83 -7 -8 11 -4 42 10 30 13 79 29 109 35 30 6 91 18
135 27 109 23 136 21 220 -19 117 -56 195 -144 195 -220 l0 -26 -102 48 c-133
61 -297 125 -305 117 -3 -3 7 -10 23 -16 135 -52 350 -164 364 -190 16 -30 12
-57 -15 -88 -37 -44 -96 -64 -205 -69 -126 -6 -145 4 -231 125 -37 51 -70 96
-75 100 -10 10 32 -61 78 -130 21 -31 38 -60 38 -64 0 -11 -53 6 -90 29 -90
55 -145 131 -110 152 15 9 12 52 -5 84 -19 37 -79 61 -156 61 -33 0 -69 4 -79
10 -26 14 -40 63 -40 137 0 61 -2 66 -43 111 -23 26 -55 66 -70 89 -14 23 -45
59 -68 80 -50 45 -79 103 -79 158 0 46 28 111 57 138 20 18 20 17 25 -80 3
-61 12 -111 22 -133 9 -19 14 -27 11 -17 -16 59 -27 158 -22 207 6 70 28 115
70 140 40 25 61 25 112 1z m-189 -443 c55 -50 73 -89 76 -155 l1 -48 6 44 6
45 32 -37 c22 -26 33 -50 38 -84 3 -26 7 -63 10 -80 2 -18 1 -33 -3 -33 -4 1
-26 24 -48 53 -105 133 -189 283 -200 358 l-6 44 20 -32 c12 -17 42 -51 68
-75z m-298 -248 c96 -19 172 -52 172 -74 0 -24 -31 -40 -79 -40 -66 0 -154 44
-192 97 -35 48 -41 81 -9 52 10 -9 59 -25 108 -35z m-851 -588 c59 -86 112
-248 113 -341 0 -53 -19 -25 -37 51 -8 37 -28 84 -49 114 -24 36 -40 76 -53
137 -10 48 -16 87 -13 87 4 0 22 -21 39 -48z m-115 -240 c52 -23 103 -72 129
-124 31 -61 25 -72 -23 -39 -24 16 -54 32 -68 36 l-25 6 25 -18 c61 -42 137
-129 147 -170 6 -23 9 -44 6 -47 -2 -2 -20 0 -40 6 -19 5 -37 7 -40 4 -9 -8 8
-45 34 -76 29 -35 26 -36 -79 -16 -167 32 -310 112 -378 211 -54 79 -22 97 80
45 33 -17 60 -29 60 -27 0 2 -25 21 -55 41 -30 20 -55 42 -55 49 0 11 57 117
63 117 1 0 20 7 42 15 49 19 119 13 177 -13z m-430 -142 c21 -6 45 -21 53 -33
104 -150 158 -199 272 -247 57 -25 63 -30 38 -30 -16 0 -94 -3 -172 -7 -138
-6 -144 -5 -217 21 -84 31 -161 91 -182 143 -20 48 -18 50 19 17 44 -42 78
-62 153 -90 92 -34 91 -30 -4 17 -77 37 -172 112 -172 136 0 6 9 22 21 37 33
41 115 57 191 36z m680 -277 c21 -20 38 -41 38 -46 0 -28 -120 36 -141 74 -11
21 -10 22 27 16 24 -4 51 -19 76 -44z m455 -46 c-2 -7 -13 -13 -25 -15 -26 -4
-42 26 -21 38 16 11 52 -7 46 -23z m-609 -3 c28 -4 52 -10 52 -13 0 -10 -102
-63 -160 -82 l-55 -19 30 25 c46 38 19 30 -49 -15 -174 -113 -376 -129 -376
-30 0 38 33 76 84 95 26 10 108 22 203 30 201 16 207 16 271 9z m191 -24 c9
-5 -4 -12 -38 -19 -94 -20 -127 -10 -79 23 22 16 84 13 117 -4z m1292 -733
c15 -45 57 -152 93 -238 104 -247 122 -340 90 -476 -11 -47 -15 -100 -12 -170
2 -57 1 -103 -2 -103 -4 0 -28 27 -56 60 -188 227 -244 475 -180 798 14 72 26
150 26 172 0 22 3 40 8 40 4 0 19 -37 33 -83z m-497 -263 c22 -22 30 -59 16
-83 -14 -28 -40 -27 -40 2 0 12 -9 37 -20 55 -11 18 -20 35 -20 37 0 12 50 3
64 -11z m-68 -21 c32 -35 30 -77 -5 -81 -31 -5 -51 21 -51 63 0 53 18 59 56
18z m904 -190 c80 -72 157 -144 172 -159 24 -26 54 -84 43 -84 -3 0 -38 22
-79 50 -41 27 -116 72 -166 98 l-92 48 -34 103 c-19 57 -34 106 -34 109 0 6
-5 10 190 -165z m-51 -102 c93 -48 268 -169 297 -206 47 -62 192 -396 277
-640 19 -55 39 -109 43 -120 4 -11 -37 26 -90 82 -150 158 -277 255 -471 358
-112 59 -114 61 -136 110 -23 50 -24 149 -4 265 8 47 15 106 15 133 0 26 2 47
5 47 3 0 32 -13 64 -29z m69 -803 c69 -21 162 -64 162 -74 0 -4 -30 -3 -67 1
-92 10 -371 7 -408 -4 -21 -6 33 -10 170 -10 186 -1 297 -9 312 -24 10 -11
-176 -93 -267 -118 -63 -17 -111 -23 -185 -23 -92 0 -108 3 -200 38 -124 48
-277 125 -269 137 3 5 18 9 34 9 15 0 92 18 171 41 217 62 404 72 547 27z"/>
<path d="M3600 5007 c0 -8 7 -17 15 -21 8 -3 20 -17 25 -32 16 -41 22 -22 8
22 -13 38 -48 61 -48 31z"/>
<path d="M3547 4963 c-4 -3 -6 -27 -6 -52 2 -34 3 -38 6 -16 3 17 9 34 14 40
5 5 9 15 9 22 0 14 -12 17 -23 6z"/>
<path d="M3841 4888 c0 -28 2 -30 9 -13 12 28 12 45 0 45 -5 0 -10 -15 -9 -32z"/>
<path d="M3680 4863 c0 -28 3 -34 10 -23 13 20 13 47 0 55 -6 4 -10 -9 -10
-32z"/>
<path d="M3776 4777 c-8 -31 -7 -39 3 -33 12 8 21 45 11 51 -4 3 -10 -5 -14
-18z"/>
<path d="M3554 4755 c-6 -14 4 -91 10 -84 10 12 14 99 5 99 -5 0 -12 -7 -15
-15z"/>
<path d="M3610 4745 c0 -11 5 -27 10 -35 8 -12 10 -12 10 5 0 11 -5 27 -10 35
-8 12 -10 12 -10 -5z"/>
<path d="M3645 4699 c-6 -19 0 -38 9 -28 10 12 16 49 7 49 -5 0 -13 -9 -16
-21z"/>
<path d="M3693 4690 c-12 -31 -6 -39 15 -18 13 13 16 48 4 48 -4 0 -13 -13
-19 -30z"/>
<path d="M3590 4686 c0 -8 5 -18 10 -21 6 -3 10 1 10 9 0 8 -4 18 -10 21 -5 3
-10 -1 -10 -9z"/>
<path d="M1275 5408 c11 -50 27 -70 19 -24 l-7 39 33 -19 c18 -11 55 -44 82
-74 28 -30 45 -44 38 -30 -24 47 -79 107 -114 124 -51 24 -59 21 -51 -16z"/>
<path d="M3815 5261 c-3 -6 1 -13 9 -18 8 -4 19 -24 25 -43 10 -34 10 -34 5
10 -4 25 -8 48 -11 53 -6 10 -21 9 -28 -2z"/>
<path d="M2486 5195 c-3 -9 -6 -22 -5 -28 0 -7 5 -1 10 12 5 13 8 26 5 28 -2
2 -6 -3 -10 -12z"/>
<path d="M2953 5153 c-18 -9 -33 -20 -33 -23 0 -4 33 -9 73 -12 94 -6 127 -25
179 -101 47 -70 135 -167 152 -167 5 0 -13 24 -41 53 -63 65 -166 219 -152
227 22 14 -25 34 -85 37 -42 2 -71 -2 -93 -14z"/>
<path d="M4495 5086 l30 -24 -40 -7 c-57 -11 -141 -43 -155 -60 -16 -19 -11
-19 42 5 64 28 178 44 233 32 25 -5 45 -8 45 -6 0 12 -86 57 -131 69 l-54 14
30 -23z"/>
<path d="M2901 5058 c67 -95 214 -210 299 -233 14 -3 -13 15 -59 42 -93 53
-173 120 -216 182 -15 23 -32 41 -37 41 -5 0 1 -15 13 -32z"/>
<path d="M1150 4606 c-41 -29 -81 -60 -89 -69 -11 -14 -9 -17 14 -23 41 -10
119 2 162 26 36 20 36 21 8 15 -68 -15 -125 -22 -125 -15 0 4 27 32 59 63 33
32 56 57 53 57 -4 0 -41 -25 -82 -54z"/>
<path d="M4634 3413 c-63 -101 -108 -183 -100 -183 3 0 19 25 36 55 17 30 55
85 84 122 36 47 51 74 47 86 -5 13 -22 -7 -67 -80z"/>
<path d="M3391 3366 c-1 -44 4 -54 50 -112 28 -35 52 -64 55 -64 2 0 -14 33
-34 73 -21 39 -45 90 -54 112 l-16 40 -1 -49z"/>
<path d="M2329 3148 c-15 -28 -3 -65 26 -84 30 -19 55 -6 55 30 0 51 -61 92
-81 54z m57 -24 c12 -17 14 -28 7 -35 -25 -25 -73 11 -60 45 9 24 34 20 53
-10z"/>
<path d="M2990 3160 c0 -5 4 -10 9 -10 6 0 13 5 16 10 3 6 -1 10 -9 10 -9 0
-16 -4 -16 -10z"/>
<path d="M4477 3125 c-24 -50 -20 -58 4 -12 11 22 19 41 17 43 -3 2 -12 -12
-21 -31z"/>
<path d="M2992 3114 c-13 -6 -20 -14 -14 -18 10 -6 50 19 42 27 -3 2 -16 -2
-28 -9z"/>
<path d="M3671 2825 c1 -19 18 -51 18 -35 0 8 -4 22 -9 30 -5 8 -9 11 -9 5z"/>
<path d="M2297 2346 c70 -33 145 -85 288 -200 268 -217 334 -245 655 -281 158
-18 298 -45 387 -76 79 -27 78 -25 -7 24 -41 24 -147 93 -235 154 -233 161
-277 186 -130 74 96 -73 209 -171 196 -171 -4 0 -33 5 -62 10 -30 6 -135 17
-235 24 -247 19 -297 40 -519 224 -55 45 -139 110 -187 143 -81 55 -113 83
-70 60 33 -18 139 -41 282 -62 175 -25 286 -56 408 -114 50 -24 92 -42 92 -39
0 9 -160 84 -244 113 -127 45 -266 78 -464 112 -210 35 -221 35 -155 5z"/>
</g>
</svg>
