<?xml version="1.0" standalone="no"?>
<!DOCTYPE svg PUBLIC "-//W3C//DTD SVG 20010904//EN"
 "http://www.w3.org/TR/2001/REC-SVG-20010904/DTD/svg10.dtd">
<svg version="1.0" xmlns="http://www.w3.org/2000/svg"
 width="443.000000pt" height="780.000000pt" viewBox="0 0 443.000000 780.000000"
 preserveAspectRatio="xMidYMid meet">

<g transform="translate(0.000000,780.000000) scale(0.100000,-0.100000)"
fill="#000000" stroke="none">
<path d="M536 7748 c79 -271 268 -799 400 -1120 128 -309 129 -312 115 -391
-19 -112 -51 -165 -214 -351 -94 -107 -148 -195 -181 -298 -58 -180 -61 -375
-9 -680 26 -152 37 -113 30 104 -8 222 0 252 83 356 71 89 61 90 -19 3 l-69
-75 -11 53 c-17 81 -14 173 10 235 11 30 49 99 85 152 64 96 293 378 300 371
8 -8 -47 -159 -85 -235 -21 -42 -62 -108 -90 -147 -49 -67 -72 -117 -30 -65
97 121 163 238 200 356 38 123 39 124 33 19 -6 -117 -38 -373 -60 -494 -17
-92 -66 -270 -90 -326 -15 -38 -18 -59 -5 -35 20 34 84 232 111 344 43 174 61
309 69 506 l6 175 56 -100 c241 -430 494 -1038 515 -1237 8 -79 -14 -171 -59
-248 -44 -74 -161 -188 -269 -260 -98 -66 -106 -78 -19 -29 137 78 262 201
333 331 24 42 46 78 49 78 6 0 35 -104 64 -230 9 -36 18 -117 21 -180 8 -144
-10 -234 -66 -344 -28 -57 -36 -82 -28 -87 9 -6 9 -20 0 -60 -7 -28 -10 -54
-8 -56 7 -7 26 67 26 99 0 53 16 58 183 55 134 -2 156 0 181 16 15 10 30 16
33 13 9 -8 -51 -127 -88 -176 -51 -66 -56 -81 -11 -33 43 47 106 160 117 210
3 18 10 35 15 38 10 6 40 -102 40 -147 0 -51 -61 -166 -121 -227 -27 -28 -46
-51 -41 -51 21 0 106 101 137 164 l35 69 0 -45 c0 -63 -35 -159 -76 -206 -60
-71 -132 -79 -202 -23 -56 45 -128 73 -201 78 -90 6 -108 10 -131 33 -30 30
-25 78 14 143 l35 57 -28 -16 c-28 -16 -29 -16 -110 41 -45 32 -114 71 -154
88 -63 27 -83 31 -167 32 -106 0 -168 -20 -216 -72 -64 -68 -83 -177 -43 -255
l21 -42 -63 -55 c-181 -156 -224 -220 -199 -297 16 -47 26 -49 22 -4 -6 55 23
134 61 166 25 21 37 25 66 20 20 -3 68 -8 106 -11 l70 -5 -71 14 c-87 17 -114
25 -114 35 0 16 89 90 114 97 20 5 34 -1 61 -25 40 -35 110 -72 170 -90 22 -7
46 -14 52 -16 20 -7 4 -32 -28 -45 -42 -18 -96 -82 -109 -131 -6 -22 -10 -64
-9 -93 l3 -51 -59 -5 -60 -5 48 -7 c26 -4 70 -17 98 -29 46 -20 50 -25 47 -51
-4 -25 -3 -26 11 -14 11 9 40 12 97 10 71 -3 85 0 112 19 50 38 98 102 162
220 33 62 72 126 86 142 l25 30 -19 -40 c-51 -105 -66 -228 -38 -316 8 -24 19
-70 26 -101 6 -31 22 -73 36 -93 l25 -37 -36 -48 c-52 -71 -147 -150 -180
-150 -3 0 -5 39 -6 88 -1 80 -2 83 -10 42 -5 -25 -7 -66 -3 -92 l6 -47 -44
-12 c-197 -54 -299 63 -211 242 34 68 27 81 -8 14 -26 -49 -38 -44 -40 20 -1
67 -17 10 -18 -65 -2 -163 71 -249 209 -250 98 0 165 36 262 139 43 46 78 87
78 92 0 24 25 3 71 -61 51 -69 70 -89 49 -51 -5 11 -10 22 -10 24 0 11 95 -32
98 -44 2 -8 8 -24 14 -36 6 -13 9 -26 6 -29 -8 -7 -46 12 -77 40 -19 16 -17
11 8 -21 71 -93 161 -140 248 -130 53 6 90 30 118 78 18 31 20 55 23 272 l4
237 -25 0 c-42 0 -73 36 -126 145 -28 57 -80 142 -115 188 l-63 83 46 -24 c49
-25 90 -25 148 -1 30 12 34 11 60 -13 41 -37 62 -46 144 -59 147 -22 179 -50
203 -178 l13 -66 8 38 c34 169 -125 357 -301 357 -37 0 -45 3 -40 15 30 80 38
134 33 234 -5 100 -28 201 -47 201 -4 0 -13 -6 -19 -14 -6 -7 -39 -26 -74 -42
-51 -23 -75 -28 -137 -28 -41 0 -85 6 -98 13 -22 12 -23 15 -17 104 8 113 -9
369 -35 525 -42 245 -115 493 -210 704 -26 60 -45 108 -43 108 9 0 98 -67 117
-89 11 -12 23 -21 28 -21 4 0 -23 42 -60 93 -163 220 -279 409 -379 620 l-22
47 22 -11 c142 -74 332 -282 402 -439 11 -25 25 -49 32 -55 15 -12 54 -151 47
-169 -3 -7 -1 -23 4 -36 7 -18 14 7 31 111 12 74 24 140 27 148 6 20 43 8 189
-64 194 -95 296 -188 350 -321 12 -30 25 -55 29 -55 3 1 15 1 26 1 29 0 25 12
-22 70 -99 120 -108 145 -35 109 157 -81 268 -298 238 -465 -15 -81 -14 -126
5 -152 22 -32 64 -26 82 11 17 35 13 40 -38 40 -45 0 -58 10 -40 32 15 18 61
19 79 3 19 -18 6 35 -26 115 -47 115 -103 260 -98 256 2 -2 61 -60 131 -129
123 -120 137 -131 87 -64 -12 17 -26 45 -29 62 l-6 32 53 0 c30 0 79 -7 109
-15 30 -8 73 -14 95 -14 l40 1 -32 14 c-31 13 -50 45 -38 64 3 5 -16 0 -42
-11 -109 -48 -262 -19 -346 65 -61 61 -42 85 48 59 80 -24 139 -27 154 -9 16
19 10 68 -9 74 -12 4 -13 2 -2 -9 6 -7 12 -19 12 -26 0 -21 -27 -15 -44 9 -9
12 -16 18 -16 12 0 -6 9 -23 21 -38 l20 -26 -24 0 c-29 0 -52 23 -44 45 5 12
-3 14 -51 9 -125 -13 -297 52 -474 178 -48 35 -85 64 -84 65 2 2 27 -2 55 -8
33 -7 74 -8 109 -3 l57 8 -90 7 c-117 9 -201 31 -303 80 -64 31 -82 44 -78 57
3 9 8 58 12 108 3 51 10 97 14 104 6 9 26 7 88 -8 106 -27 186 -60 272 -112
65 -40 72 -42 101 -30 59 25 78 104 33 139 -44 35 -137 20 -162 -25 -8 -15
-24 -13 -163 21 -85 20 -157 40 -161 43 -4 4 -12 39 -18 77 -30 192 -104 340
-238 478 -37 37 -62 67 -57 67 6 0 -32 23 -83 50 -122 64 -217 129 -322 216
-77 63 -214 203 -207 210 1 1 63 -22 137 -51 349 -139 497 -152 843 -75 74 17
175 36 224 43 l88 13 -103 58 c-209 119 -353 166 -507 166 -105 0 -151 -12
-318 -81 -240 -100 -332 -102 -426 -8 -44 44 -71 102 -202 436 -107 275 -148
362 -113 241z m1299 -653 c122 -45 277 -124 269 -136 -3 -5 -18 -9 -34 -9 -15
0 -91 -18 -167 -40 -229 -66 -423 -74 -573 -22 -66 23 -144 61 -137 68 2 2 58
0 123 -4 115 -9 359 -1 371 12 4 3 -83 6 -193 6 -183 0 -295 8 -310 23 -9 8
122 72 198 97 192 62 298 63 453 5z m-767 -296 c92 -74 178 -131 287 -189 119
-63 125 -68 146 -113 23 -52 25 -149 4 -267 -8 -47 -15 -106 -15 -132 0 -27
-2 -48 -5 -48 -37 0 -323 186 -360 234 -48 63 -192 394 -275 631 -21 61 -41
119 -46 130 -4 11 37 -26 90 -82 53 -56 132 -130 174 -164z m528 -369 c188
-227 244 -475 180 -798 -14 -72 -26 -150 -26 -172 0 -22 -3 -40 -7 -40 -5 0
-20 37 -34 83 -15 45 -57 152 -93 238 -104 247 -122 340 -90 476 11 47 15 100
12 171 -2 56 -1 102 2 102 4 0 28 -27 56 -60z m-362 -260 c41 -27 116 -72 166
-98 l92 -48 34 -104 c19 -57 33 -105 31 -106 -4 -4 -230 197 -319 283 -37 36
-71 78 -77 94 -5 16 -8 29 -6 29 3 0 38 -22 79 -50z m996 -322 c0 -13 9 -38
20 -56 25 -41 25 -42 -4 -42 -46 0 -79 58 -56 99 14 28 40 27 40 -1z m90 2
c14 -26 9 -82 -7 -87 -30 -10 -79 77 -56 100 14 15 53 6 63 -13z m318 -1111
c2 -9 -4 -19 -12 -22 -19 -8 -51 17 -42 32 11 17 50 9 54 -10z m-1328 -797
c23 -11 58 -49 101 -110 37 -51 70 -96 75 -100 10 -10 -32 61 -78 130 -21 31
-38 60 -38 64 0 11 50 -6 93 -33 90 -55 142 -127 107 -148 -15 -9 -12 -52 5
-84 19 -37 79 -61 156 -61 33 0 69 -4 79 -10 26 -14 40 -63 40 -137 0 -61 2
-66 43 -111 23 -26 55 -66 70 -89 14 -23 45 -59 68 -80 50 -45 79 -103 79
-158 0 -46 -28 -111 -57 -138 -20 -18 -20 -17 -26 80 -4 83 -22 172 -32 161
-2 -2 3 -32 11 -68 19 -93 17 -177 -6 -227 -20 -44 -69 -83 -105 -83 -60 1
-179 96 -231 186 -34 59 -41 132 -19 214 29 107 26 131 -4 40 -31 -95 -41 -88
-41 32 0 80 26 170 70 238 18 28 29 54 25 58 -13 13 -81 -78 -165 -219 -76
-126 -161 -231 -175 -217 -6 6 57 141 77 165 6 8 8 16 6 19 -8 8 -42 -43 -67
-101 -47 -106 -114 -134 -194 -80 -89 61 -103 190 -29 268 40 43 73 56 201 83
64 14 120 29 125 34 5 5 -18 3 -50 -5 -32 -7 -84 -16 -114 -19 -52 -6 -53 -6
-30 8 14 8 76 26 137 39 115 26 204 59 224 83 7 8 -11 4 -42 -10 -30 -13 -79
-29 -109 -35 -30 -6 -91 -18 -135 -27 -44 -9 -95 -17 -113 -16 -46 1 -170 61
-220 107 -45 40 -82 107 -82 148 l0 26 103 -48 c131 -62 296 -125 304 -117 3
3 -3 9 -13 12 -50 18 -237 106 -299 140 -80 45 -100 77 -75 121 34 60 115 91
240 92 52 1 85 -4 110 -17z m1028 -409 c53 -25 112 -89 112 -121 0 -13 -3 -12
-20 3 -10 9 -59 25 -108 35 -134 27 -198 66 -159 98 34 28 98 23 175 -15z
m-432 -36 c105 -133 189 -283 200 -358 l6 -44 -20 32 c-12 17 -42 51 -68 75
-55 50 -73 89 -76 155 l-1 48 -6 -44 -6 -45 -32 37 c-22 26 -33 50 -38 84 -3
26 -7 63 -10 81 -2 17 -1 32 3 32 4 -1 26 -24 48 -53z m307 -431 c7 -11 5 -26
-15 -101 l-10 -40 -19 35 c-26 50 -23 36 13 -66 73 -208 23 -359 -119 -359
-44 0 -57 5 -84 30 -29 28 -79 116 -79 141 0 6 13 14 29 17 18 4 41 21 58 43
15 20 47 59 70 87 47 55 69 112 79 199 l7 57 31 -16 c17 -9 34 -21 39 -27z"/>
<path d="M1672 3568 c-13 -13 -16 -48 -4 -48 4 0 13 14 19 30 12 31 6 39 -15
18z"/>
<path d="M1770 3566 c0 -8 5 -18 10 -21 6 -3 10 1 10 9 0 8 -4 18 -10 21 -5 3
-10 -1 -10 -9z"/>
<path d="M1717 3548 c-4 -12 -4 -24 -1 -27 6 -7 24 20 24 37 0 21 -17 13 -23
-10z"/>
<path d="M1807 3525 c-6 -54 -4 -61 12 -50 13 7 13 50 2 80 -6 15 -9 7 -14
-30z"/>
<path d="M1750 3525 c0 -11 5 -27 10 -35 8 -12 10 -12 10 5 0 11 -5 27 -10 35
-8 12 -10 12 -10 -5z"/>
<path d="M1592 3480 c-5 -14 -7 -29 -4 -34 7 -12 24 33 18 48 -2 6 -8 0 -14
-14z"/>
<path d="M1684 3384 c-4 -14 -2 -30 5 -37 8 -8 11 -1 11 26 0 43 -7 48 -16 11z"/>
<path d="M1527 3356 c-4 -15 -6 -31 -2 -34 10 -10 16 6 13 35 l-3 28 -8 -29z"/>
<path d="M1832 3347 c-1 -15 -7 -36 -14 -47 -14 -21 -4 -40 13 -23 6 6 9 30 6
54 -2 24 -4 32 -5 16z"/>
<path d="M1726 3283 c10 -42 23 -63 39 -63 22 0 18 28 -5 35 -11 3 -20 15 -20
25 0 10 -5 22 -10 25 -7 4 -8 -3 -4 -22z"/>
<path d="M1760 6428 c41 -24 147 -94 235 -155 233 -161 277 -186 130 -74 -75
57 -209 171 -202 171 2 0 46 -6 98 -14 52 -8 153 -17 224 -21 208 -12 287 -46
490 -215 61 -50 149 -118 198 -151 80 -55 112 -83 69 -60 -33 18 -139 41 -282
62 -175 25 -286 56 -407 114 -51 24 -93 42 -93 39 0 -9 160 -84 244 -113 127
-45 266 -78 464 -112 95 -16 179 -29 185 -29 7 0 -16 15 -50 34 -77 41 -134
82 -295 212 -222 178 -316 221 -548 249 -254 30 -376 54 -515 100 -11 4 14
-13 55 -37z"/>
<path d="M1691 5450 c0 -8 4 -22 9 -30 12 -18 12 -2 0 25 -6 13 -9 15 -9 5z"/>
<path d="M2982 5178 c-27 -27 -3 -90 38 -101 21 -5 40 17 40 48 0 17 -43 65
-58 65 -4 0 -13 -5 -20 -12z m58 -33 c16 -19 9 -49 -12 -53 -19 -4 -53 42 -43
58 9 15 41 12 55 -5z"/>
<path d="M897 5125 c-24 -50 -20 -58 4 -12 11 22 19 41 17 43 -3 2 -12 -12
-21 -31z"/>
<path d="M2376 5134 c-26 -18 -17 -24 12 -8 13 6 20 14 15 17 -4 3 -17 -1 -27
-9z"/>
<path d="M2365 5080 c-3 -5 1 -10 9 -10 9 0 16 5 16 10 0 6 -4 10 -9 10 -6 0
-13 -4 -16 -10z"/>
<path d="M1918 4978 c21 -40 45 -91 54 -113 l16 -40 1 49 c1 44 -4 54 -50 112
-28 35 -52 64 -55 64 -2 0 14 -33 34 -72z"/>
<path d="M810 4955 c-17 -30 -55 -85 -84 -122 -36 -47 -51 -74 -47 -86 5 -13
22 7 67 80 63 101 108 183 100 183 -3 0 -19 -25 -36 -55z"/>
<path d="M3610 4959 c-25 -4 -96 -26 -158 -48 -132 -48 -242 -77 -327 -86
-103 -11 -250 30 -312 88 -13 11 -23 17 -23 13 0 -4 26 -31 57 -59 126 -115
174 -213 193 -396 32 -295 38 -329 79 -408 44 -87 104 -135 186 -148 l40 -6
-30 14 c-51 24 -82 70 -100 149 -9 40 -34 105 -55 143 -20 39 -41 88 -45 110
-4 21 -15 56 -26 77 -27 53 -39 126 -30 184 l7 49 38 -115 c47 -141 57 -161
107 -215 39 -42 65 -57 122 -69 21 -5 33 -18 51 -59 13 -28 44 -73 70 -99 43
-44 45 -49 35 -77 -6 -17 -24 -42 -41 -56 -38 -32 -24 -32 23 -1 20 14 42 38
49 55 12 29 16 31 64 31 126 1 260 50 315 117 38 46 40 61 4 35 -89 -63 -168
-85 -243 -69 -35 7 -35 7 9 -16 40 -22 43 -25 25 -34 -94 -50 -223 -4 -275 98
-26 52 -25 56 19 64 65 11 110 49 142 120 33 73 53 84 102 58 23 -12 57 -18
111 -18 71 -1 80 -4 108 -31 17 -16 35 -38 39 -49 7 -17 9 -16 9 10 1 17 -8
45 -19 63 -20 32 -20 32 0 69 55 103 -7 220 -157 297 -37 19 -62 35 -55 36 27
1 52 40 52 83 0 50 -25 83 -68 93 -15 3 -31 7 -37 8 -5 1 -30 -1 -55 -5z m120
-34 c44 -40 13 -110 -61 -139 -55 -22 -402 -50 -479 -38 l-55 8 45 29 c25 16
74 39 110 52 l65 23 -30 -25 c-44 -37 -18 -30 43 11 136 91 307 129 362 79z
m-590 -135 c0 -5 -10 -16 -23 -25 -18 -12 -34 -13 -71 -6 -63 12 -66 18 -14
29 58 13 108 14 108 2z m-48 -75 c20 -14 42 -34 49 -46 11 -21 10 -22 -27 -16
-36 6 -114 68 -114 90 0 14 51 -2 92 -28z m652 1 c107 -40 170 -95 191 -166 7
-21 2 -19 -40 18 -29 25 -77 53 -126 72 -106 41 -110 38 -11 -11 77 -37 172
-112 172 -136 0 -24 -44 -63 -83 -74 -45 -12 -124 -7 -157 11 -11 6 -36 36
-55 66 -51 80 -127 149 -208 189 -38 19 -77 36 -86 37 -25 3 124 13 235 16 88
3 110 0 168 -22z m-469 -12 c144 -37 255 -103 320 -191 60 -82 29 -105 -74
-53 -34 16 -61 29 -61 27 0 -2 25 -21 55 -41 30 -20 55 -41 55 -47 0 -26 -56
-112 -81 -125 -108 -55 -268 6 -330 128 -31 61 -25 72 24 39 23 -16 53 -32 67
-36 l25 -6 -25 18 c-61 42 -137 129 -147 170 -6 23 -9 44 -6 47 2 2 20 0 40
-6 19 -5 37 -7 40 -4 9 8 -8 45 -35 77 l-26 31 55 -7 c30 -4 77 -13 104 -21z
m-178 -376 c8 -37 28 -84 49 -114 24 -36 40 -76 53 -137 10 -48 16 -87 13 -87
-13 0 -72 96 -98 160 -29 72 -54 177 -54 230 0 52 19 24 37 -52z"/>
<path d="M2025 4880 c5 -8 32 -44 60 -80 82 -105 215 -288 222 -306 6 -15 -1
-16 -62 -12 -79 7 -104 22 -157 98 -21 29 -38 51 -38 48 0 -4 14 -46 31 -95
73 -206 139 -288 305 -371 258 -129 425 -340 501 -630 27 -104 36 -266 21
-387 -11 -89 9 -33 28 79 11 60 15 126 12 194 -3 56 -3 102 -1 102 12 0 179
-362 208 -450 76 -235 104 -577 74 -915 -11 -138 -48 -329 -84 -442 -13 -42
-23 -79 -21 -81 8 -7 77 219 100 328 36 169 49 295 48 475 -1 176 -12 284 -43
445 -26 130 -94 341 -148 454 -22 48 -38 86 -35 86 12 0 190 -286 244 -391 97
-190 150 -380 150 -539 0 -74 -24 -231 -41 -261 -12 -24 -7 -24 33 1 18 11 37
20 41 20 17 0 -15 -40 -64 -81 -46 -39 -51 -41 -45 -19 6 21 5 22 -4 7 -6 -9
-13 -26 -15 -37 -2 -11 -6 -24 -9 -28 -3 -5 3 -21 13 -36 l19 -28 7 50 c4 34
14 57 31 73 13 12 26 20 30 17 3 -3 -2 -31 -11 -62 -13 -44 -16 -86 -13 -183
4 -118 -1 -193 -18 -246 -6 -19 -4 -18 15 6 13 15 26 27 31 27 4 0 10 -39 12
-87 5 -112 45 -202 124 -281 58 -57 167 -116 207 -110 l24 3 -17 85 c-25 120
-54 191 -102 244 -45 52 -100 84 -161 94 -38 7 -42 11 -58 57 -10 28 -18 69
-19 93 l0 43 22 -21 c12 -11 31 -20 42 -20 20 1 20 1 3 11 -11 6 -25 26 -33
45 -23 54 -17 240 12 364 6 25 6 25 21 5 107 -144 150 -305 103 -383 -18 -29
-18 -32 -3 -23 10 5 29 21 43 36 22 24 25 35 25 108 0 73 -4 89 -33 146 -17
35 -32 66 -32 68 0 2 13 2 29 1 17 -2 31 1 32 7 1 10 -118 75 -136 74 -5 0 17
-14 50 -31 67 -34 70 -36 64 -43 -10 -9 -129 54 -129 69 0 7 -7 16 -15 20 -11
4 -15 21 -15 60 0 69 -33 262 -59 346 -11 35 -19 66 -17 67 2 2 30 -27 63 -65
58 -65 189 -175 256 -216 38 -23 31 -16 -46 48 -126 105 -250 276 -427 591
-192 340 -276 466 -400 598 -34 37 -60 67 -57 67 2 0 56 -28 118 -63 63 -35
260 -144 438 -243 337 -186 406 -234 462 -322 20 -32 28 -39 31 -26 2 13 17 0
53 -45 28 -35 63 -78 78 -95 28 -31 28 -31 -2 16 -18 26 -50 68 -72 94 -22 25
-37 49 -34 52 3 3 11 0 17 -6 7 -7 15 -12 20 -12 13 0 -85 86 -158 137 -39 28
-118 78 -175 112 l-104 61 128 0 c132 0 224 14 345 52 57 18 63 22 42 28 -25
6 -25 6 10 24 45 23 140 96 140 107 0 4 -34 -16 -76 -46 -78 -56 -101 -66 -90
-40 3 8 9 22 12 30 4 9 -27 -9 -67 -40 -98 -73 -157 -95 -262 -95 -190 0 -492
116 -713 273 -104 74 -260 220 -328 307 l-50 63 40 -5 c59 -8 142 -47 201 -95
29 -24 53 -40 53 -36 0 17 -100 176 -149 237 -69 87 -171 180 -286 261 -75 53
-126 102 -246 239 -177 198 -175 196 -164 176z m260 -421 c50 -5 110 -16 135
-25 73 -27 164 -98 251 -197 73 -83 144 -185 135 -195 -2 -2 -22 8 -44 22 -40
25 -140 61 -307 111 -160 48 -245 105 -291 198 -14 27 -24 51 -22 53 2 2 28
-17 58 -41 63 -52 146 -98 226 -125 32 -11 60 -20 63 -20 3 0 -45 25 -106 55
-87 42 -129 70 -183 121 -76 72 -88 94 -37 68 17 -10 73 -21 122 -25z m1318
-2287 c63 -79 97 -224 62 -268 -15 -18 -16 -17 -10 13 12 60 -31 180 -103 291
-26 41 10 15 51 -36z m-140 -59 c-5 -32 -8 -97 -8 -145 0 -47 -3 -84 -7 -82
-4 2 -12 29 -18 59 -9 45 -8 69 6 140 20 96 38 115 27 28z m174 -514 c43 -27
48 -37 103 -201 32 -95 42 -138 34 -138 -35 0 -132 47 -171 83 -57 53 -89 108
-101 177 -9 47 -8 73 1 59 96 -149 156 -224 217 -274 14 -11 9 -2 -12 21 -63
73 -188 267 -188 294 0 18 75 5 117 -21z"/>
<path d="M4180 3717 c-19 -7 -44 -19 -55 -26 -18 -11 -17 -12 10 -6 66 15 125
22 125 15 0 -4 -27 -32 -59 -63 -33 -32 -57 -57 -55 -57 8 0 95 60 142 98 33
26 40 37 30 43 -19 13 -98 10 -138 -4z"/>
<path d="M2239 3373 c93 -53 173 -120 216 -182 15 -23 32 -41 37 -41 15 0 -31
60 -97 126 -57 57 -160 124 -215 139 -14 3 13 -15 59 -42z"/>
<path d="M2097 3338 c63 -66 166 -220 152 -228 -20 -13 22 -33 77 -38 53 -4
134 19 134 38 0 4 -33 9 -72 12 -95 6 -128 25 -180 101 -47 70 -135 167 -152
167 -5 0 13 -24 41 -52z"/>
<path d="M1004 3240 c-59 -28 -174 -44 -229 -32 -39 8 -44 8 -33 -5 17 -21 65
-44 123 -59 l50 -13 -30 23 -30 24 40 7 c57 11 141 43 155 60 16 19 5 18 -46
-5z"/>
<path d="M2891 3073 c-1 -6 -4 -20 -7 -30 -5 -17 -5 -17 6 0 6 10 9 23 6 30
-3 9 -5 9 -5 0z"/>
<path d="M1526 3030 c7 -51 16 -66 35 -55 9 6 8 11 -4 20 -8 6 -20 27 -26 46
-10 33 -10 32 -5 -11z"/>
<path d="M3935 2950 c44 -81 97 -133 149 -146 28 -7 28 -6 21 27 -11 51 -27
72 -19 25 l7 -39 -33 19 c-18 11 -55 44 -83 74 -27 30 -46 48 -42 40z"/>
<path d="M3208 2634 c-24 -205 -144 -396 -301 -475 -21 -11 -94 -38 -161 -59
-158 -51 -257 -115 -327 -212 l-20 -27 28 14 c15 8 47 15 70 15 29 0 64 12
118 40 99 53 188 110 181 117 -2 3 -17 -4 -33 -15 -61 -43 -250 -129 -260
-118 -8 8 25 61 54 87 44 42 86 58 209 84 140 29 208 59 275 122 44 41 51 44
44 23 -28 -93 -136 -248 -242 -351 -143 -138 -306 -225 -553 -294 -52 -15
-117 -38 -145 -51 l-50 -24 50 6 c85 11 230 52 324 92 389 168 660 512 736
933 9 52 15 108 13 125 -2 19 -6 8 -10 -32z"/>
<path d="M2350 1764 c-20 -46 -53 -97 -83 -130 -27 -30 -44 -54 -38 -54 39 0
125 78 136 123 8 32 23 132 21 134 -1 2 -17 -31 -36 -73z"/>
<path d="M3053 1491 c-76 -154 -139 -241 -358 -501 -265 -314 -354 -443 -414
-599 -47 -123 -46 -144 2 -39 83 181 184 342 317 506 91 113 206 229 217 219
12 -13 8 -169 -6 -227 -34 -140 -107 -264 -233 -398 -90 -94 -74 -87 35 18
165 157 237 306 237 492 0 113 21 178 106 324 65 113 169 323 163 328 -2 2
-32 -53 -66 -123z"/>
<path d="M3308 1512 c-20 -31 -84 -109 -141 -173 -112 -124 -217 -255 -217
-271 0 -15 96 44 140 86 66 62 107 118 141 190 17 37 33 66 34 64 2 -2 20 -86
39 -187 20 -102 38 -187 40 -189 10 -10 26 79 25 138 -1 66 -3 66 -14 -4 -4
-21 -10 -35 -14 -30 -18 20 -53 226 -46 271 8 52 14 49 36 -15 l16 -46 -1 112
c0 62 -1 112 -1 111 0 0 -17 -26 -37 -57z m-117 -220 c-11 -21 -32 -54 -47
-71 -28 -33 -125 -104 -132 -96 -2 2 5 19 17 38 23 38 170 181 178 174 2 -3
-5 -23 -16 -45z"/>
<path d="M2491 905 c-141 -68 -263 -220 -305 -382 -34 -132 -29 -294 15 -448
l12 -40 17 52 c19 58 25 68 84 132 l41 44 -77 -52 c-50 -33 -79 -47 -84 -40
-4 6 -9 51 -12 99 -6 115 16 217 75 339 38 79 59 108 131 180 53 53 110 99
147 119 82 43 47 41 -44 -3z"/>
</g>
</svg>
